<?xml version="1.0" encoding="UTF-8"?>
<svg id="Layer_1" data-name="Layer 1" xmlns="http://www.w3.org/2000/svg" version="1.1" viewBox="0 0 1920 1080">
  <defs>
    <style>
      .cls-1 {
        fill: #fff;
        stroke: #000;
        stroke-miterlimit: 10;
      }
    </style>
  </defs>
  <path class="cls-1" d="M784.5,275.5c41.92-1.55,19.43,201.29,163,314,133.4,104.72,304.85,48.95,310,84,5.49,37.32-182.44,144.6-347.2,80.94-101.99-39.41-148.24-126.21-156.64-142.69-75.99-148.98-9.09-334.78,30.85-336.25Z"/>
  <path class="cls-1" d="M1042.5,345.1c-12.37,2.19-4.38,36.5-27,57.83-29.57,27.89-86.49,10.12-88,17.95-1.51,7.88,58.58,12.88,71,45.87,11.99,31.83-27,72.26-20,77.77,7.47,5.89,42.58-47.57,79-41.88,31.85,4.98,47.85,52.56,56,48.86,7.86-3.57-15.22-44.11,2-70.79,16.33-25.31,57.66-20.74,58-30.91.33-9.84-38.52-7.88-73-33.9-38.96-29.4-44.15-73.25-58-70.79Z"/>
</svg>